<?xml version="1.0" encoding="UTF-8" standalone="no"?>
<!-- Created with Inkscape (http://www.inkscape.org/) -->

<svg
   width="210mm"
   height="297mm"
   viewBox="0 0 210 297"
   version="1.1"
   id="svg1"
   inkscape:version="1.3.2 (091e20e, 2023-11-25, custom)"
   sodipodi:docname="fond.svg"
   xmlns:inkscape="http://www.inkscape.org/namespaces/inkscape"
   xmlns:sodipodi="http://sodipodi.sourceforge.net/DTD/sodipodi-0.dtd"
   xmlns="http://www.w3.org/2000/svg"
   xmlns:svg="http://www.w3.org/2000/svg">
  <sodipodi:namedview
     id="namedview1"
     pagecolor="#ffffff"
     bordercolor="#000000"
     borderopacity="0.25"
     inkscape:showpageshadow="2"
     inkscape:pageopacity="0.0"
     inkscape:pagecheckerboard="0"
     inkscape:deskcolor="#d1d1d1"
     inkscape:document-units="mm"
     inkscape:zoom="0.66724888"
     inkscape:cx="329.71206"
     inkscape:cy="543.27555"
     inkscape:window-width="1680"
     inkscape:window-height="987"
     inkscape:window-x="-8"
     inkscape:window-y="-8"
     inkscape:window-maximized="1"
     inkscape:current-layer="layer1" />
  <defs
     id="defs1" />
  <g
     inkscape:label="Calque 1"
     inkscape:groupmode="layer"
     id="layer1">
    <rect
       style="fill:#132a13;stroke-width:0.499999;fill-opacity:1"
       id="rect1"
       width="224.43524"
       height="312.4646"
       x="-5.9479308"
       y="-10.309747" />
    <path
       style="fill:#ecf39e;fill-opacity:1;stroke-width:0.499999"
       id="path2"
       d="m 27.472415,-0.74424923 c 1.329034,1.73514695 2.555285,3.53089753 3.48026,5.51415093 0.857329,1.9844998 0.898851,4.1274637 0.840761,6.2491233 -0.101338,1.827545 -0.59183,3.583902 -1.33409,5.248341 -0.754216,1.732494 -1.776433,3.269594 -3.235986,4.470258 -1.493089,1.104447 -3.278335,1.621238 -4.986334,2.278336 -1.183225,0.474372 -2.428155,0.755429 -3.680127,0.974575 -1.325903,0.270502 -2.627776,-0.113837 -3.912647,-0.396193 -0.135002,0.03876 -0.295607,0.02819 -0.405006,0.116284 -0.664869,0.535367 -0.122104,2.270318 -0.03422,2.902779 0.07421,0.534054 0.130447,1.070449 0.195671,1.605674 0.295359,2.506409 0.403505,5.03173 -0.222328,7.499768 -0.401945,1.585111 -0.714782,2.154775 -1.352048,3.63487 -0.927343,2.019022 -2.115033,3.896762 -3.5910255,5.559356 -0.5236065,0.589804 -1.5828063,1.634818 -2.1588481,2.211319 -1.416422,1.566029 -3.224345,2.387724 -5.1570504,3.108174 -2.32585001,0.828352 -4.759845,1.252612 -7.2011787,1.55906 -1.6184819,0.260024 -3.0534792,0.176287 -4.6509551,-0.108299 -0.9055792,-0.165204 -0.4752822,-0.06117 -1.2933692,-0.30166 0,0 3.1118208,2.385854 3.1118208,2.385854 v 0 c 0.8293066,0.194085 0.3965112,0.104936 1.2995069,0.26194 1.5710344,0.25168 3.1153793,0.268931 4.6908782,-0.008 2.45445943,-0.359333 4.9050017,-0.812252 7.2547112,-1.627577 2.0622845,-0.781118 3.7017396,-1.586825 5.1989659,-3.279954 2.292767,-2.377483 4.522225,-4.801839 5.770422,-7.921774 0.627501,-1.476718 0.969637,-2.135917 1.380381,-3.709709 0.649378,-2.488137 0.596393,-5.039336 0.318014,-7.576082 -0.0975,-1.136938 -0.241266,-2.245442 -0.383918,-3.373646 -0.02329,-0.184208 -0.109313,-0.485184 0.06337,-0.553404 0.09182,-0.03627 0.1974,-0.0041 0.296101,-0.0061 1.311381,0.286418 2.655968,0.554518 3.993559,0.262156 1.263908,-0.243324 2.520014,-0.530863 3.706108,-1.045159 1.737448,-0.672716 3.530235,-1.264026 5.041334,-2.393983 1.551316,-1.30817 2.47659,-2.786633 3.31924,-4.626714 0.76208,-1.707438 1.316342,-3.502775 1.40752,-5.382221 0.05143,-2.163862 0.04145,-4.3686313 -0.77529,-6.4113697 -0.88385,-2.0058869 -2.121941,-3.7855056 -3.381799,-5.57096256 z" />
    <path
       style="fill:#ecf39e;fill-opacity:1;stroke-width:0.499999"
       d="M -3.2713617,-2.28004 -3.9652871,53.233978 10.805407,46.889519 15.06809,37.075432 15.365487,25.873498 23.097797,23.69259 32.019692,19.429906 33.308411,12.29239 32.217958,4.5600799 27.955274,-2.1809078 Z"
       id="path5" />
    <path
       style="fill:#ecf39e;fill-opacity:1;stroke-width:0.499999"
       id="path6"
       d="m 151.7001,103.22086 c -3.39662,2.08481 -6.9879,3.79836 -10.33689,5.96402 -2.2345,1.61942 -4.42254,3.33916 -6.34669,5.32647 -1.14094,1.17838 -2.21961,2.23087 -2.5049,3.93414 -0.11902,0.71058 0.0947,1.43784 0.14206,2.15676 0.30307,0.73344 0.5355,1.50023 0.90922,2.20032 1.60439,3.00552 5.01407,6.38636 7.70977,8.46146 0.61798,0.47571 1.3001,0.86171 1.95015,1.29256 4.57629,2.40336 3.50146,2.35765 6.64731,3.05504 0.38244,0.0848 1.46173,0.46125 1.15482,0.21783 -5.6265,-4.46265 -2.54636,-2.02575 -2.66,-0.95006 -0.038,0.35937 -0.20174,0.69401 -0.30261,1.04102 -1.07824,2.22968 -2.35687,4.43003 -2.26538,7.00052 0.022,0.6195 0.17211,1.22778 0.25816,1.84166 0.69596,2.79786 1.86374,5.45337 3.59374,7.76925 0.94466,1.26457 1.76836,2.08253 2.83737,3.22254 2.45629,2.5332 5.4305,4.11494 8.58764,5.6966 0.76831,0.38491 2.33077,0.76307 3.15637,0.98589 0.84819,0.13678 1.82541,0.38682 2.70286,0.2034 1.8966,-0.39648 2.9271,-2.02472 3.83651,-3.55078 1.54909,-2.77087 1.59002,-6.02663 2.61345,-8.96537 0.12666,-0.10137 0.22607,-0.25282 0.37998,-0.30409 0.57791,-0.19254 2.38353,0.77348 2.98528,0.99748 2.25812,0.81819 3.81876,0.68839 6.15017,0.22512 2.01236,-0.51208 3.99646,-1.32886 5.27365,-3.0527 0.2519,-0.34 0.43574,-0.72549 0.65361,-1.08823 1.30216,-3.17633 1.15768,-6.66232 1.07561,-10.02757 -0.0781,-2.51786 -0.5624,-4.97048 -1.34946,-7.35554 -0.50907,-1.61632 -1.58184,-2.76167 -2.80713,-3.86162 -0.3527,-0.44183 -1.42756,-0.82487 -1.44091,-1.50113 -0.005,-0.23457 0.22325,-0.69448 0.30021,-0.87482 0.63439,-1.25108 1.09261,-2.54611 1.36763,-3.9193 0.47374,-1.65381 0.65674,-3.30459 0.28271,-4.99038 -0.11227,-0.22092 -0.19873,-0.45698 -0.33681,-0.66275 -0.19717,-0.29384 -0.67468,-0.75153 -0.9774,-0.93555 -2.08623,-1.26818 -3.14317,-2.14586 -5.1461,-2.67179 -1.34282,-0.16741 -2.62046,-0.22522 -3.87081,-0.78568 -2.23614,-1.09147 1.18466,0.7713 1.82801,1.05675 0.3238,0.14366 -0.56615,-0.42602 -0.853,-0.63388 -1.0381,-0.75224 -2.10005,-1.42764 -3.20503,-2.07667 -3.16878,-2.05058 -6.47869,-3.589 -10.10825,-4.52931 -1.90608,-0.31442 -3.76505,-0.83493 -5.6506,-1.242 -1.63786,-0.28746 -3.32204,-0.46537 -4.98375,-0.33687 -1.25673,0.0423 -2.18035,0.70603 -2.99828,1.5973 -0.41465,0.43047 -0.80919,0.87041 -1.24328,1.28303 0,0 3.36948,2.07627 3.36948,2.07627 v 0 c 0.43851,-0.41796 0.83573,-0.86737 1.25419,-1.30416 0.78148,-0.82465 1.63853,-1.34742 2.81229,-1.36107 1.64424,-0.0716 3.29932,0.0956 4.91189,0.419 1.87367,0.41889 3.73568,0.8856 5.62326,1.24252 1.51032,0.41165 2.98846,0.90047 4.42092,1.53791 0.3851,0.17137 1.47735,0.79961 1.14039,0.54638 -0.67615,-0.50813 -1.44526,-0.87904 -2.16789,-1.31856 3.04528,1.72993 5.69049,4.10116 8.94355,5.47899 1.27185,0.46595 2.58481,0.48435 3.89971,0.75879 1.35028,0.44457 3.56791,1.74947 -1.63737,-1.19179 -0.19258,-0.10882 0.37085,0.24195 0.54673,0.37609 0.5874,0.448 0.45753,0.36479 0.88473,0.98094 0.46731,1.62863 0.26025,3.22139 -0.20849,4.83377 -0.25629,1.34951 -0.70381,2.61494 -1.34096,3.83484 -0.73253,1.63086 -0.4538,1.78479 0.94266,2.82739 1.19712,1.08161 2.37992,2.09071 2.90735,3.68846 0.83704,2.34858 1.33896,4.7822 1.45742,7.27807 0.11078,3.29187 0.26536,6.70361 -1.007,9.81356 -0.20541,0.3401 -0.37778,0.70249 -0.61623,1.0203 -1.23722,1.64902 -3.19887,2.37578 -5.12761,2.84907 -2.24458,0.39387 -3.9302,0.41892 -6.06935,-0.4316 -0.87847,-0.3397 -2.30958,-1.23446 -3.24781,-0.63887 -0.18571,0.11788 -0.29655,0.32495 -0.44482,0.48743 -0.92798,2.94537 -0.98309,6.16333 -2.53148,8.91263 -1.70296,2.80361 -2.91272,3.69287 -6.24845,2.93824 -0.51823,-0.1492 -1.04328,-0.27648 -1.5547,-0.44761 -0.52683,-0.17629 -1.79597,-1.09538 -1.5573,-0.59371 0.3127,0.65729 1.24526,0.75677 1.83672,1.18103 0.42074,0.3018 -0.89945,-0.51605 -1.32363,-0.81299 -0.96982,-0.67891 -1.69495,-1.39441 -2.57223,-2.1927 -1.06556,-1.10747 -1.9278,-1.94658 -2.87531,-3.1722 -1.74166,-2.25288 -2.9177,-4.84932 -3.63215,-7.59797 -0.0945,-0.58592 -0.25386,-1.165 -0.28338,-1.75774 -0.12646,-2.53904 1.17353,-4.71511 2.26185,-6.89844 0.009,-0.025 0.7645,-1.79341 0.42689,-2.06222 -3.40109,-2.70796 -2.71233,-1.8969 -5.09436,-2.46778 -0.50264,-0.12046 -1.45106,-0.92457 -1.49555,-0.40961 -0.0515,0.59617 0.95875,0.71629 1.43812,1.07443 -0.66742,-0.41908 -1.36952,-0.78744 -2.00227,-1.25725 -2.65706,-1.97282 -6.11121,-5.40901 -7.74321,-8.29041 -0.3753,-0.6626 -0.62761,-1.3877 -0.94141,-2.08155 -0.0769,-0.66694 -0.31886,-1.33529 -0.23065,-2.00084 0.21863,-1.64954 1.28788,-2.68808 2.37585,-3.82061 1.9058,-1.98385 4.09012,-3.68171 6.34862,-5.24044 3.38757,-2.12557 6.95335,-3.91885 10.42469,-5.90031 z" />
    <path
       style="fill:#ecf39e;fill-opacity:1;stroke-width:0.499999"
       d="m 151.17657,104.08878 -16.95161,15.36549 4.06443,8.6245 6.24532,4.85748 5.8488,2.37917 -2.57744,8.22797 3.46963,9.21929 6.54272,6.54273 6.93925,2.1809 7.23665,-8.72363 -0.49566,-3.76702 5.45227,0.59479 7.93058,-1.28872 3.07309,-7.13751 -1.78438,-13.48198 -3.37049,-4.65921 c 0.0454,-3.69488 3.60761,-6.92086 0,-11.10281 l -4.75834,-1.38785 -5.55141,-3.17223 -9.81408,-3.66789 c -3.83311,-0.54143 -7.66622,-0.88534 -11.49933,0.39653 z"
       id="path7"
       sodipodi:nodetypes="ccccccccccccccccccccc" />
    <path
       style="fill:#ecf39e;fill-opacity:1;stroke-width:0.499999"
       id="path8"
       d="m 1.1110215,196.48185 c 0.9173527,-2.59855 2.874493,-4.52056 4.8205986,-6.38689 0.8903362,-0.64372 2.3583402,-2.34574 3.5565929,-2.42449 0.4095782,-0.0269 1.477633,0.58901 1.19684,0.28963 -0.433729,-0.46246 -1.7199636,-1.46939 -1.708768,-0.83547 0.013229,0.74912 1.146385,0.96498 1.719577,1.44747 2.235638,1.99011 3.997136,4.41011 5.9421,6.66243 0.469952,0.54421 0.903954,1.12861 1.447375,1.59948 0.785707,0.68082 1.679843,1.22536 2.519765,1.83804 4.182169,2.42379 8.379473,4.92794 13.183957,5.86381 1.047403,0.20403 2.11387,0.3891 3.180638,0.36287 2.391135,-0.0588 3.679552,-0.75519 5.853017,-1.58022 1.649587,-0.37256 2.841366,-1.88339 4.456475,-2.33488 0.660897,-0.18475 1.372894,-0.0191 2.057752,-0.0625 0.397663,-0.0252 -1.228749,-0.38922 -1.195359,0.008 0.118513,1.40921 1.21992,2.57748 1.528837,3.95751 0.405056,1.80952 0.396756,3.68732 0.595135,5.53099 -0.139848,2.14817 -0.157932,4.30775 -0.41955,6.44452 -0.810402,6.61899 -2.996406,14.99262 -6.599507,20.70248 -0.679032,1.07607 -1.536644,2.02848 -2.304968,3.04272 -1.859256,2.18661 -4.17726,3.79918 -6.564357,5.33675 -0.830313,0.53482 -1.959012,1.04454 -2.462178,1.99607 -0.193469,0.36587 -0.167317,0.81066 -0.250979,1.21599 0.255334,0.49131 0.424768,1.03787 0.766003,1.47391 1.262153,1.61283 4.00889,3.43491 5.755008,4.48372 4.46129,2.6797 4.046913,2.4215 7.39159,4.11619 1.292233,0.67694 2.656441,1.20868 3.951674,1.87946 0.577472,0.29906 1.589156,0.31995 1.697773,0.96114 0.103778,0.61263 -1.188831,-1.20857 -1.673907,-0.82025 -0.441,0.35302 0.852559,0.75496 1.184314,1.21217 0.280813,0.38701 0.420167,0.85906 0.630251,1.28859 -0.03928,0.44446 0.06881,0.9281 -0.11783,1.33337 -0.872961,1.89555 -4.157252,2.90374 -5.864836,3.46879 -0.968449,0.32046 -7.555693,2.21091 -8.130354,2.37688 -7.077999,1.9131 -14.141346,3.92031 -21.356701,5.25357 -0.660978,0.11554 -1.322798,0.22638 -1.982934,0.34663 -2.350005,0.42812 -4.6797474,0.86654 -7.0621145,1.0927 -2.4392934,0.23159 -4.2452048,0.27419 -6.70543748,0.37812 -6.92768712,0.30644 -13.86200702,0.38769 -20.79500502,0.47506 -6.557345,0.0222 -13.100057,0.39492 -19.64133,0.81386 0,0 2.871211,2.05636 2.871211,2.05636 v 0 c 6.537407,-0.47283 13.080509,-0.80809 19.637797,-0.79057 6.939556,-0.0353 13.8763613,-0.21378 20.8109938,-0.47765 2.4225197,-0.0967 4.3773515,-0.14544 6.7855245,-0.35399 2.4148607,-0.20913 4.7892367,-0.5919 7.1666457,-1.04897 0.648953,-0.12475 1.297513,-0.25154 1.94627,-0.37732 7.125669,-1.47666 14.089545,-3.60439 21.12494,-5.44774 0.887029,-0.23897 7.098205,-1.89582 8.320167,-2.28188 1.967669,-0.62166 5.238446,-1.60602 6.255358,-3.71366 0.222361,-0.46085 0.135292,-1.01441 0.202938,-1.52165 -0.202834,-0.47103 -0.327067,-0.98441 -0.608504,-1.41316 -1.30133,-1.98252 -4.219326,-3.19436 -5.915954,-4.20512 -1.801511,-1.07326 -3.744642,-1.85796 -5.615344,-2.79597 -0.69981,-0.36006 -1.377204,-0.76751 -2.099424,-1.08019 -0.361969,-0.15672 1.339003,0.83346 1.013846,0.61019 -2.338554,-1.60583 -5.023694,-2.98322 -6.538653,-5.48707 0.0412,-0.34718 -0.0263,-0.72568 0.1236,-1.04153 0.422336,-0.88992 1.589355,-1.48202 2.308164,-1.97976 2.346021,-1.62448 4.629452,-3.3191 6.458881,-5.5448 0.756479,-1.04254 1.604934,-2.02418 2.269435,-3.12762 1.647558,-2.73587 2.816018,-5.79666 3.752125,-8.83245 1.152109,-3.73629 2.165905,-8.25669 2.680464,-12.11258 0.284949,-2.13528 0.364871,-4.29294 0.547307,-6.43941 -0.124619,-1.69394 -0.146296,-7.77972 -1.681337,-9.57619 -2.058194,-2.40872 -4.394033,-4.29089 -7.347858,-3.34949 -1.570997,0.50068 -2.734172,1.94688 -4.358412,2.33938 -2.206175,0.81014 -3.316608,1.42878 -5.733058,1.4555 -1.921126,0.0212 -4.748749,-0.70125 -6.498849,-1.32764 -1.166948,-0.41767 -2.256394,-1.02926 -3.409862,-1.48283 -0.06981,-0.0274 -0.14525,0.0376 -0.217876,0.0563 -0.813747,-0.57429 -1.682267,-1.07793 -2.441241,-1.72287 -0.610114,-0.51845 -2.23755,-2.53696 -2.755752,-3.16509 -1.453135,-1.76137 -1.357831,-1.70904 -2.960252,-3.41848 -0.546544,-0.58304 -1.111374,-1.14867 -1.667061,-1.723 -2.500896,-2.24065 -2.409656,-2.35998 -6.5183088,-4.31227 -0.4028694,-0.19143 -0.8936154,-0.19048 -1.3331793,-0.11477 -1.2497284,0.21526 -2.5967404,1.87787 -3.5543945,2.58222 -1.97805249,1.89751 -3.9972063,3.8186 -5.0482094,6.40547 z" />
    <path
       style="fill:#ecf39e;fill-opacity:1;stroke-width:0.499999"
       id="path9"
       d="m 176.8561,-2.6083497 c -0.92591,1.4389242 -1.99986,2.7506142 -2.64143,4.3627401 -1.45282,3.6506126 -1.77784,7.6186834 -2.25528,11.4761166 -0.21385,4.033226 -0.70112,8.140515 -0.20739,12.177951 0.21282,1.740263 0.47421,2.318891 0.99496,4.059865 1.1474,3.822271 2.42749,7.706032 2.77766,11.708556 0.21865,2.499206 0.023,3.000952 -0.29114,5.446897 -1.1042,4.884005 -2.82845,9.660337 -2.97458,14.714109 -0.11229,3.883419 0.25534,4.679789 0.98608,8.439565 0.49686,1.280666 0.90055,2.601497 1.49057,3.841996 1.63242,3.432072 4.02178,6.736747 6.93035,9.20015 3.79179,3.211441 6.87799,4.293703 11.67072,6.777329 2.11374,0.788275 4.19632,1.665769 6.34122,2.36483 4.8112,1.568061 10.9076,3.03989 15.80419,4.228076 6.85266,1.662842 13.70601,3.279259 20.53096,5.054499 6.09056,1.65719 12.05301,3.7382 18.13728,5.41449 2.82436,0.77815 4.95148,1.29988 7.76663,2.0103 0,0 -2.79325,-2.1358 -2.79325,-2.1358 v 0 c -2.91773,-0.72141 -4.74841,-1.15496 -7.68805,-1.965 -6.02456,-1.66012 -11.92985,-3.72446 -17.98378,-5.284404 -6.60248,-1.652043 -5.59095,-1.420993 -12.64025,-3.084926 -7.90595,-1.866135 -15.8828,-3.567903 -23.59385,-6.164288 -2.17083,-0.730944 -4.2772,-1.640949 -6.41581,-2.461422 -0.80912,-0.313878 -1.67631,-0.50677 -2.42737,-0.941631 -4.54092,-2.629151 -8.18478,-6.870843 -10.48694,-11.552912 -0.60108,-1.222459 -1.0183,-2.527035 -1.52745,-3.790553 -0.75103,-3.667977 -1.15009,-4.55663 -1.04453,-8.353311 0.14027,-5.045197 1.95595,-9.767525 3.15025,-14.611294 0.32497,-2.485843 0.52912,-3.013903 0.30598,-5.554263 -0.0876,-0.9974 -0.27642,-1.984055 -0.46097,-2.968141 -0.55417,-2.955033 -1.33512,-5.870813 -2.21121,-8.744537 -0.4576,-1.558089 -0.7714,-2.412958 -1.01153,-3.984858 -0.618,-4.045494 -0.30238,-8.182616 -0.0845,-12.241828 0.48697,-3.809638 0.88119,-7.6633558 2.43137,-11.2283403 0.6837,-1.5723394 1.7729,-2.86155572 2.80855,-4.19964242 z" />
    <path
       style="fill:#ecf39e;fill-opacity:1;stroke-width:0.499999"
       id="path10"
       d="m -4.4284836,86.486613 c 0.4241141,0.0046 0.8488952,0.03791 1.2723423,0.0137 2.30298785,-0.13167 4.6343553,-0.463259 6.8984767,-0.859472 3.8987955,-0.682276 7.0623436,-1.364856 10.8839176,-2.520789 2.045135,-0.618604 4.046459,-1.37374 6.069689,-2.060609 6.525359,-2.6079 4.720947,-1.800614 10.804947,-4.547466 2.594721,-1.171485 5.655694,-2.759411 8.455165,-3.474884 4.249386,-1.086032 6.490171,-0.806672 11.026132,-0.87045 10.779276,0.176364 21.620864,1.389029 32.371315,-0.01979 2.137987,-0.280176 4.278813,-0.629833 6.352657,-1.220301 1.793721,-0.510712 3.465727,-1.379056 5.198589,-2.068587 1.438716,-1.039259 2.993884,-1.933889 4.316145,-3.117778 4.112098,-3.681772 6.701698,-8.526436 8.212748,-13.775579 1.20358,-4.181054 1.16494,-5.94414 1.53868,-10.170668 -0.50124,-4.433448 -0.25216,-5.057597 -1.96464,-9.184158 -1.23723,-2.981338 -2.87451,-5.326242 -4.68437,-7.977298 -3.391467,-4.799863 -1.73457,-2.410205 -4.973311,-7.167155 -2.13392,-3.111479 -4.143578,-6.302853 -5.980713,-9.5975793 0,0 -3.421827,-1.5259831 -3.421827,-1.5259831 v 0 c 1.937901,3.3371401 4.034687,6.5763324 6.239822,9.7437394 0.807334,1.181745 1.601793,2.372389 2.421999,3.545236 3.47178,4.964443 7.41443,9.831491 8.78791,15.890417 0.35038,1.545672 0.38997,3.145695 0.58496,4.718542 -0.31205,4.210722 -0.23591,5.96592 -1.42512,10.128978 -1.47941,5.17897 -4.09013,9.967602 -8.14088,13.590563 -1.301404,1.163966 -2.829856,2.04592 -4.244787,3.068878 -1.690891,0.693701 -3.320989,1.559626 -5.072674,2.081102 -4.129902,1.229471 -9.488186,1.753401 -13.706176,1.92397 -8.335875,0.337087 -16.663897,-0.474781 -24.9868,-0.735219 -4.68798,0.01246 -6.924727,-0.327302 -11.301431,0.816978 -2.759175,0.721381 -5.809887,2.382592 -8.350527,3.574344 -5.968251,2.799561 -4.233246,1.992249 -10.686528,4.586888 -2.035066,0.66948 -4.047596,1.411806 -6.105198,2.008441 -3.8114281,1.105183 -7.1411427,1.783871 -11.04233555,2.361332 -2.49464185,0.369261 -4.68017475,0.598988 -7.16425345,0.58687 -0.4522968,-0.0021 -0.9012211,-0.07816 -1.3518317,-0.117245 z" />
    <path
       style="fill:#ecf39e;fill-opacity:1;stroke-width:0.499999"
       id="path11"
       d="m 190.66269,223.3315 c -5.67764,5.12293 -12.078,9.33468 -18.36961,13.64854 -1.5506,1.28064 -3.20532,2.44475 -4.65181,3.84192 -4.85291,4.68743 -8.33058,10.43295 -11.74844,16.18117 -7.14084,12.00964 0.53512,-0.60003 -6.21057,10.40992 -1.06625,1.4175 -2.0194,2.92764 -3.19876,4.25254 -7.4316,8.34882 -17.9669,12.16761 -28.11209,16.00944 -9.81635,3.781 -19.973724,6.58772 -29.854729,10.18053 -5.063516,1.8411 -5.900171,2.30846 -10.601851,4.41047 -1.447856,0.94488 -2.95747,1.80128 -4.343567,2.83464 -3.934682,2.93335 -7.219786,6.59603 -10.443792,10.26133 -1.753566,1.99359 -3.477831,4.01278 -5.224769,6.01218 -2.316425,2.75151 -5.339453,4.5661 -8.37112,6.39549 0,0 2.984677,1.92833 2.984677,1.92833 v 0 c 3.041041,-1.86896 6.093391,-3.70472 8.393713,-6.51102 6.037736,-7.07054 11.517881,-14.4031 19.778596,-19.0822 4.640831,-2.17448 5.366472,-2.61403 10.389748,-4.51599 9.827974,-3.72115 19.964434,-6.57148 29.820904,-10.21326 10.1496,-3.82966 21.02536,-7.63495 28.43616,-16.01885 1.18061,-1.33565 2.11483,-2.87031 3.17224,-4.30544 4.00164,-6.76031 1.96726,-3.2699 6.09481,-10.4761 2.38523,-4.04699 4.47795,-7.62058 7.43741,-11.29039 3.71761,-4.60994 4.52023,-4.90055 8.97808,-8.56439 6.38814,-4.34854 12.89516,-8.54547 18.98638,-13.31039 z" />
    <path
       style="fill:#ecf39e;fill-opacity:1;stroke-width:0.499999"
       id="path12"
       d="m 166.16059,289.89123 c 0.96626,-0.69316 0.77186,-0.59264 2.16151,-1.30853 4.15035,-2.13804 1.74538,-0.7367 6.32691,-3.19698 3.18756,-1.71172 3.67419,-2.0664 6.72012,-3.92846 3.85643,-2.52306 7.38327,-5.51124 10.40793,-8.99268 0.86286,-0.99317 1.65595,-2.04491 2.49311,-3.05985 0.90882,-1.10183 1.82982,-2.19353 2.74473,-3.29031 6.15647,-7.43406 14.75061,-11.89973 23.27646,-16.04348 6.13942,-2.88142 12.55036,-5.09197 18.92816,-7.36653 1.70454,-0.6079 3.42974,-1.16419 5.10202,-1.85592 1.57315,-0.65073 3.08304,-1.44495 4.62456,-2.16743 4.5816,-2.54213 9.11588,-5.3776 12.85537,-9.09373 1.64076,-1.63051 2.14545,-2.41427 3.50438,-4.20248 1.34499,-1.88382 2.51003,-3.88063 3.63215,-5.90151 0,0 -3.33288,-1.90995 -3.33288,-1.90995 v 0 c -1.0503,2.03786 -2.14365,4.05366 -3.45901,5.9371 -1.34583,1.83282 -1.75113,2.51179 -3.39464,4.18921 -3.64677,3.72204 -8.0769,6.60367 -12.59778,9.13473 -1.52408,0.72217 -3.01623,1.51595 -4.57223,2.1665 -1.6632,0.69537 -3.37722,1.2628 -5.0756,1.86717 -6.41148,2.28151 -12.90815,4.37268 -19.05567,7.32942 -7.22649,3.53615 -14.56716,7.3265 -20.44284,12.93595 -1.04981,1.00224 -1.96594,2.13576 -2.9489,3.20364 -0.92838,1.09003 -1.86118,2.1763 -2.78514,3.27009 -0.84561,1.00102 -1.65138,2.03626 -2.52352,3.01424 -3.0427,3.41199 -6.52314,6.40514 -10.33263,8.93016 -2.79654,1.72519 -3.74068,2.37535 -6.68893,3.91274 -3.80609,1.98469 -2.94616,1.39467 -6.56373,3.04951 -1.46671,0.67093 -1.29822,0.59954 -2.33529,1.25944 z" />
    <path
       style="fill:#ecf39e;fill-opacity:1;stroke-width:0.499999"
       id="path13"
       d="m 199.69021,287.33165 c -0.3882,0.35062 -0.73008,0.76062 -1.1646,1.05188 -2.12984,1.42771 -5.47095,3.03884 -7.65366,4.10419 -6.40734,3.12732 -12.90791,6.0321 -19.43526,8.8974 -6.6956,2.72958 -13.0917,6.09421 -19.01113,10.25256 -4.58513,3.22101 -8.75339,6.93152 -12.89579,10.68683 -3.75955,3.57754 -7.31319,7.37265 -11.61821,10.31981 -3.21713,2.20239 -4.22269,2.57834 -7.77201,4.41828 -1.60404,0.64106 -3.18126,1.35377 -4.81212,1.92318 -3.62725,1.26642 -6.72563,1.97913 -10.47295,2.80432 -4.974688,1.09545 -9.97697,1.95569 -15.006384,2.74923 -1.207145,0.16758 -2.414288,0.33517 -3.621434,0.50276 0,0 2.890973,2.03546 2.890973,2.03546 v 0 c 1.178922,-0.1896 2.357844,-0.3792 3.536764,-0.56882 4.986338,-0.86437 9.970681,-1.75133 14.914041,-2.8411 3.71989,-0.82002 6.92141,-1.58041 10.52598,-2.82686 1.65147,-0.57108 3.25259,-1.27849 4.87889,-1.91775 3.53186,-1.79084 4.69819,-2.23224 7.89865,-4.40661 4.31801,-2.93362 7.87424,-6.73198 11.5299,-10.41599 4.04777,-3.80314 8.12632,-7.53731 12.65687,-10.77423 5.86316,-4.18901 12.22668,-7.54144 18.89151,-10.26845 6.59208,-2.86279 13.18247,-5.73402 19.71747,-8.72577 1.49182,-0.68297 6.37135,-2.93505 8.07642,-3.93883 0.47025,-0.27683 0.85549,-0.67765 1.28324,-1.01647 z" />
    <path
       style="fill:#ecf39e;fill-opacity:1;stroke-width:0.499999"
       id="path14"
       d="m 120.1936,151.22185 c -1.64541,-1.70647 -3.66754,-2.97991 -5.57219,-4.36685 -2.55649,-1.8616 -2.26331,-1.67227 -4.75383,-3.65534 -2.29691,-2.15001 -5.30679,-4.47385 -5.64,-7.88236 -0.19815,-2.0268 0.37696,-4.08466 0.75659,-6.03464 1.21659,-4.98707 1.71966,-10.12966 2.98648,-15.10437 0.68903,-2.70572 1.0218,-3.37699 1.98686,-5.92304 0,0 -3.16111,-1.75537 -3.16111,-1.75537 v 0 c -0.9362,2.55625 -1.28319,3.29579 -1.94815,6.00438 -1.22354,4.98383 -1.65603,10.13654 -3.00494,15.09554 -0.41351,1.84681 -1.09406,4.15466 -0.9683,6.11565 0.22559,3.51779 3.29886,5.92662 5.64046,8.13896 2.41839,1.94439 2.23142,1.83774 4.70866,3.65821 1.05311,0.77391 2.76999,1.95406 3.8367,2.81197 0.11594,0.0933 1.20908,1.08612 1.49028,1.34105 z" />
  </g>
</svg>
