<?xml version="1.0"?>
<svg width="210" height="297" xmlns="http://www.w3.org/2000/svg" xmlns:svg="http://www.w3.org/2000/svg" version="1.1">

 <g class="layer">
  <title>Layer 1</title>
  <g id="layer1">
   <rect fill="#081c15" height="312.46" id="rect1" stroke-width="0.5" width="224.44" x="-9.95" y="-9.31"/>
   <path d="m27.47,-0.74c1.33,1.73 2.56,3.53 3.48,5.51c0.86,1.98 0.9,4.13 0.84,6.25c-0.1,1.83 -0.59,3.58 -1.33,5.25c-0.75,1.73 -1.78,3.27 -3.24,4.47c-1.49,1.1 -3.27,1.62 -4.98,2.28c-1.19,0.47 -2.43,0.75 -3.68,0.97c-1.33,0.27 -2.63,-0.11 -3.92,-0.4c-0.13,0.04 -0.29,0.03 -0.4,0.12c-0.67,0.54 -0.12,2.27 -0.03,2.9c0.07,0.54 0.13,1.07 0.19,1.61c0.3,2.51 0.4,5.03 -0.22,7.5c-0.4,1.58 -0.72,2.15 -1.35,3.63c-0.93,2.02 -2.12,3.9 -3.59,5.56c-0.53,0.59 -1.59,1.64 -2.16,2.21c-1.42,1.57 -3.23,2.39 -5.16,3.11c-2.33,0.83 -4.76,1.26 -7.2,1.56c-1.62,0.26 -3.06,0.18 -4.65,-0.11c-0.91,-0.16 -0.48,-0.06 -1.3,-0.3c0,0 3.12,2.39 3.12,2.39l0,0c0.83,0.19 0.39,0.1 1.3,0.26c1.57,0.25 3.11,0.27 4.69,-0.01c2.45,-0.36 4.9,-0.81 7.25,-1.63c2.06,-0.78 3.7,-1.58 5.2,-3.28c2.29,-2.37 4.52,-4.8 5.77,-7.92c0.63,-1.47 0.97,-2.13 1.38,-3.71c0.65,-2.49 0.6,-5.04 0.32,-7.57c-0.1,-1.14 -0.24,-2.25 -0.39,-3.38c-0.02,-0.18 -0.1,-0.48 0.07,-0.55c0.09,-0.04 0.2,0 0.29,-0.01c1.32,0.29 2.66,0.56 4,0.27c1.26,-0.25 2.52,-0.54 3.7,-1.05c1.74,-0.67 3.53,-1.26 5.05,-2.39c1.55,-1.31 2.47,-2.79 3.31,-4.63c0.77,-1.71 1.32,-3.5 1.41,-5.38c0.05,-2.17 0.04,-4.37 -0.77,-6.41c-0.89,-2.01 -2.13,-3.79 -3.39,-5.58l-3.61,-1.54z" fill="#40916c" id="path2" stroke-width="0.5"/>
   <path d="m-3.27,-2.28l-0.7,55.51l14.78,-6.34l4.26,-9.81l0.3,-11.21l7.73,-2.18l8.92,-4.26l1.29,-7.14l-1.09,-7.73l-4.26,-6.74l-31.23,-0.1z" fill="#40916c" id="path5" stroke-width="0.5" transform="matrix(1 0 0 1 0 0)"/>
   <path d="m151.7,103.22c-3.4,2.09 -6.99,3.8 -10.34,5.96c-2.23,1.62 -4.42,3.34 -6.34,5.33c-1.14,1.18 -2.22,2.23 -2.51,3.94c-0.12,0.71 0.1,1.43 0.14,2.15c0.31,0.74 0.54,1.5 0.91,2.2c1.61,3.01 5.02,6.39 7.71,8.46c0.62,0.48 1.3,0.87 1.95,1.3c4.58,2.4 3.5,2.35 6.65,3.05c0.38,0.09 1.46,0.46 1.15,0.22c-5.62,-4.46 -2.54,-2.03 -2.66,-0.95c-0.03,0.36 -0.2,0.69 -0.3,1.04c-1.08,2.23 -2.35,4.43 -2.26,7c0.02,0.62 0.17,1.23 0.26,1.84c0.69,2.8 1.86,5.46 3.59,7.77c0.94,1.27 1.77,2.08 2.84,3.22c2.45,2.54 5.43,4.12 8.58,5.7c0.77,0.39 2.33,0.76 3.16,0.99c0.85,0.13 1.83,0.38 2.7,0.2c1.9,-0.4 2.93,-2.02 3.84,-3.55c1.55,-2.77 1.59,-6.03 2.61,-8.97c0.13,-0.1 0.23,-0.25 0.38,-0.3c0.58,-0.19 2.39,0.77 2.99,1c2.26,0.82 3.82,0.69 6.15,0.22c2.01,-0.51 3.99,-1.33 5.27,-3.05c0.25,-0.34 0.44,-0.73 0.66,-1.09c1.3,-3.17 1.15,-6.66 1.07,-10.03c-0.08,-2.51 -0.56,-4.97 -1.35,-7.35c-0.51,-1.62 -1.58,-2.76 -2.81,-3.86c-0.35,-0.44 -1.42,-0.83 -1.44,-1.5c0,-0.24 0.23,-0.7 0.3,-0.88c0.64,-1.25 1.1,-2.55 1.37,-3.92c0.48,-1.65 0.66,-3.3 0.28,-4.99c-0.11,-0.22 -0.19,-0.46 -0.33,-0.66c-0.2,-0.3 -0.68,-0.75 -0.98,-0.94c-2.09,-1.27 -3.14,-2.14 -5.15,-2.67c-1.34,-0.17 -2.62,-0.22 -3.87,-0.78c-2.23,-1.1 1.19,0.77 1.83,1.05c0.33,0.15 -0.56,-0.42 -0.85,-0.63c-1.04,-0.75 -2.1,-1.43 -3.21,-2.08c-3.17,-2.05 -6.48,-3.59 -10.1,-4.53c-1.91,-0.31 -3.77,-0.83 -5.66,-1.24c-1.63,-0.29 -3.32,-0.46 -4.98,-0.34c-1.26,0.05 -2.18,0.71 -3,1.6c-0.41,0.43 -0.81,0.87 -1.24,1.28c0,0 3.37,2.08 3.37,2.08l0,0c0.44,-0.42 0.83,-0.87 1.25,-1.3c0.78,-0.83 1.64,-1.35 2.82,-1.37c1.64,-0.07 3.29,0.1 4.91,0.42c1.87,0.42 3.73,0.89 5.62,1.25c1.51,0.41 2.99,0.9 4.42,1.53c0.39,0.18 1.48,0.8 1.14,0.55c-0.67,-0.51 -1.44,-0.88 -2.17,-1.32c3.05,1.73 5.69,4.1 8.95,5.48c1.27,0.47 2.58,0.49 3.9,0.76c1.35,0.44 3.56,1.75 -1.64,-1.19c-0.19,-0.11 0.37,0.24 0.55,0.37c0.58,0.45 0.45,0.37 0.88,0.99c0.47,1.62 0.26,3.22 -0.21,4.83c-0.25,1.35 -0.7,2.61 -1.34,3.83c-0.73,1.63 -0.45,1.79 0.94,2.83c1.2,1.08 2.38,2.09 2.91,3.69c0.84,2.35 1.34,4.78 1.46,7.28c0.11,3.29 0.26,6.7 -1.01,9.81c-0.2,0.34 -0.38,0.7 -0.61,1.02c-1.24,1.65 -3.2,2.38 -5.13,2.85c-2.25,0.39 -3.93,0.42 -6.07,-0.43c-0.88,-0.34 -2.31,-1.24 -3.25,-0.64c-0.18,0.12 -0.3,0.33 -0.44,0.49c-0.93,2.94 -0.99,6.16 -2.54,8.91c-1.7,2.8 -2.91,3.69 -6.24,2.94c-0.52,-0.15 -1.05,-0.28 -1.56,-0.45c-0.53,-0.18 -1.79,-1.09 -1.56,-0.59c0.32,0.65 1.25,0.75 1.84,1.18c0.42,0.3 -0.9,-0.52 -1.32,-0.81c-0.97,-0.68 -1.7,-1.4 -2.57,-2.2c-1.07,-1.1 -1.93,-1.94 -2.88,-3.17c-1.74,-2.25 -2.92,-4.85 -3.63,-7.6c-0.1,-0.58 -0.26,-1.16 -0.29,-1.76c-0.12,-2.53 1.18,-4.71 2.27,-6.89c0.01,-0.03 0.76,-1.8 0.42,-2.07c-3.4,-2.7 -2.71,-1.89 -5.09,-2.46c-0.5,-0.12 -1.45,-0.93 -1.5,-0.41c-0.05,0.59 0.96,0.71 1.44,1.07c-0.67,-0.42 -1.37,-0.79 -2,-1.26c-2.66,-1.97 -6.11,-5.41 -7.74,-8.29c-0.38,-0.66 -0.63,-1.38 -0.95,-2.08c-0.07,-0.67 -0.31,-1.33 -0.23,-2c0.22,-1.65 1.29,-2.69 2.38,-3.82c1.91,-1.98 4.09,-3.68 6.35,-5.24c3.39,-2.13 6.95,-3.92 10.42,-5.9l-3.28,-2.12z" fill="#081c15" id="path6" stroke-width="0.5" transform="matrix(1 0 0 1 0 0)"/>
   <path d="m151.18,104.09l-16.96,15.36l4.07,8.63l6.24,4.86l5.85,2.38l-2.57,8.22l3.47,9.22l6.54,6.55l6.94,2.18l7.23,-8.73l-0.49,-3.76l5.45,0.59l7.93,-1.29l3.07,-7.14l-1.78,-13.48l-3.37,-4.66c0.05,-3.69 3.61,-6.92 0,-11.1l-4.76,-1.39l-5.55,-3.17l-9.81,-3.67c-3.84,-0.54 -7.67,-0.88 -11.5,0.4z" fill="#40916c" id="path7" stroke-width="0.5" transform="matrix(1 0 0 1 0 0)"/>
   <path d="m1.11,196.48c0.92,-2.6 2.88,-4.52 4.82,-6.39c0.89,-0.64 2.36,-2.34 3.56,-2.42c0.41,-0.03 1.48,0.59 1.2,0.29c-0.44,-0.46 -1.72,-1.47 -1.71,-0.84c0.01,0.75 1.14,0.97 1.72,1.45c2.23,1.99 3.99,4.41 5.94,6.66c0.47,0.55 0.9,1.13 1.45,1.6c0.78,0.68 1.68,1.23 2.52,1.84c4.18,2.43 8.37,4.93 13.18,5.87c1.05,0.2 2.11,0.38 3.18,0.36c2.39,-0.06 3.68,-0.76 5.85,-1.58c1.65,-0.37 2.84,-1.88 4.46,-2.34c0.66,-0.18 1.37,-0.02 2.06,-0.06c0.39,-0.02 -1.23,-0.39 -1.2,0.01c0.12,1.41 1.22,2.58 1.53,3.96c0.41,1.81 0.4,3.68 0.6,5.53c-0.14,2.15 -0.16,4.31 -0.42,6.44c-0.81,6.62 -3,14.99 -6.6,20.7c-0.68,1.08 -1.54,2.03 -2.31,3.05c-1.86,2.18 -4.18,3.8 -6.56,5.33c-0.83,0.54 -1.96,1.05 -2.47,2c-0.19,0.37 -0.16,0.81 -0.25,1.22c0.26,0.49 0.43,1.03 0.77,1.47c1.26,1.61 4.01,3.43 5.76,4.48c4.46,2.68 4.04,2.43 7.39,4.12c1.29,0.68 2.65,1.21 3.95,1.88c0.58,0.3 1.59,0.32 1.7,0.96c0.1,0.61 -1.19,-1.21 -1.68,-0.82c-0.44,0.35 0.85,0.76 1.19,1.21c0.28,0.39 0.42,0.86 0.63,1.29c-0.04,0.45 0.07,0.93 -0.12,1.33c-0.87,1.9 -4.16,2.91 -5.87,3.47c-0.96,0.32 -7.55,2.21 -8.13,2.38c-7.07,1.91 -14.14,3.92 -21.35,5.25c-0.66,0.12 -1.33,0.23 -1.99,0.35c-2.35,0.43 -4.68,0.87 -7.06,1.09c-2.44,0.23 -4.24,0.28 -6.7,0.38c-6.93,0.31 -13.87,0.39 -20.8,0.48c-6.56,0.02 -13.1,0.39 -19.64,0.81c0,0 2.87,2.06 2.87,2.06l0,0c6.54,-0.48 13.08,-0.81 19.64,-0.79c6.94,-0.04 13.88,-0.22 20.81,-0.48c2.42,-0.1 4.38,-0.15 6.79,-0.36c2.41,-0.2 4.78,-0.59 7.16,-1.04c0.65,-0.13 1.3,-0.26 1.95,-0.38c7.12,-1.48 14.09,-3.61 21.12,-5.45c0.89,-0.24 7.1,-1.9 8.32,-2.28c1.97,-0.62 5.24,-1.61 6.26,-3.72c0.22,-0.46 0.13,-1.01 0.2,-1.52c-0.2,-0.47 -0.33,-0.98 -0.61,-1.41c-1.3,-1.98 -4.22,-3.19 -5.91,-4.21c-1.8,-1.07 -3.75,-1.85 -5.62,-2.79c-0.7,-0.36 -1.37,-0.77 -2.1,-1.08c-0.36,-0.16 1.34,0.83 1.02,0.61c-2.34,-1.61 -5.03,-2.98 -6.54,-5.49c0.04,-0.35 -0.03,-0.72 0.12,-1.04c0.42,-0.89 1.59,-1.48 2.31,-1.98c2.35,-1.62 4.63,-3.32 6.46,-5.54c0.76,-1.05 1.6,-2.03 2.27,-3.13c1.65,-2.74 2.81,-5.8 3.75,-8.83c1.15,-3.74 2.17,-8.26 2.68,-12.12c0.29,-2.13 0.37,-4.29 0.55,-6.44c-0.13,-1.69 -0.15,-7.78 -1.68,-9.57c-2.06,-2.41 -4.4,-4.29 -7.35,-3.35c-1.57,0.5 -2.74,1.94 -4.36,2.34c-2.21,0.81 -3.32,1.43 -5.73,1.45c-1.92,0.02 -4.75,-0.7 -6.5,-1.32c-1.17,-0.42 -2.26,-1.03 -3.41,-1.49c-0.07,-0.03 -0.15,0.04 -0.22,0.06c-0.81,-0.58 -1.68,-1.08 -2.44,-1.72c-0.61,-0.52 -2.24,-2.54 -2.76,-3.17c-1.45,-1.76 -1.35,-1.71 -2.96,-3.42c-0.54,-0.58 -1.11,-1.15 -1.66,-1.72c-2.5,-2.24 -2.41,-2.36 -6.52,-4.31c-0.4,-0.19 -0.9,-0.19 -1.34,-0.12c-1.24,0.22 -2.59,1.88 -3.55,2.58c-1.98,1.9 -4,3.82 -5.05,6.41l3.43,1.95z" fill="#40916c" id="path8" stroke-width="0.5"/>
   <path d="m176.86,-2.61c-0.93,1.44 -2,2.75 -2.65,4.36c-1.45,3.66 -1.77,7.62 -2.25,11.48c-0.21,4.03 -0.7,8.14 -0.21,12.18c0.21,1.74 0.48,2.32 1,4.06c1.14,3.82 2.42,7.7 2.77,11.71c0.22,2.5 0.03,3 -0.29,5.44c-1.1,4.89 -2.82,9.66 -2.97,14.72c-0.11,3.88 0.25,4.68 0.98,8.44c0.5,1.28 0.91,2.6 1.5,3.84c1.63,3.43 4.02,6.74 6.93,9.2c3.79,3.21 6.87,4.29 11.67,6.78c2.11,0.79 4.19,1.66 6.34,2.36c4.81,1.57 10.91,3.04 15.8,4.23c6.85,1.66 13.71,3.28 20.53,5.05c6.09,1.66 12.06,3.74 18.14,5.42c2.82,0.78 4.95,1.3 7.77,2.01c0,0 -2.8,-2.14 -2.8,-2.14l0,0c-2.91,-0.72 -4.74,-1.15 -7.68,-1.96c-6.03,-1.66 -11.93,-3.73 -17.99,-5.29c-6.6,-1.65 -5.59,-1.42 -12.64,-3.08c-7.9,-1.87 -15.88,-3.57 -23.59,-6.17c-2.17,-0.73 -4.28,-1.64 -6.42,-2.46c-0.81,-0.31 -1.67,-0.5 -2.43,-0.94c-4.54,-2.63 -8.18,-6.87 -10.48,-11.55c-0.6,-1.22 -1.02,-2.53 -1.53,-3.79c-0.75,-3.67 -1.15,-4.56 -1.04,-8.36c0.14,-5.04 1.95,-9.76 3.15,-14.61c0.32,-2.48 0.52,-3.01 0.3,-5.55c-0.09,-1 -0.27,-1.98 -0.46,-2.97c-0.55,-2.95 -1.33,-5.87 -2.21,-8.74c-0.46,-1.56 -0.77,-2.42 -1.01,-3.99c-0.62,-4.04 -0.3,-8.18 -0.09,-12.24c0.49,-3.81 0.88,-7.66 2.44,-11.23c0.68,-1.57 1.77,-2.86 2.8,-4.2l-3.38,-2.01z" fill="#40916c" id="path9" stroke-width="0.5"/>
   <path d="m-4.43,86.49c0.43,0 0.85,0.03 1.27,0.01c2.31,-0.13 4.64,-0.46 6.9,-0.86c3.9,-0.68 7.06,-1.36 10.89,-2.52c2.04,-0.62 4.04,-1.37 6.07,-2.06c6.52,-2.61 4.72,-1.8 10.8,-4.55c2.6,-1.17 5.66,-2.76 8.46,-3.47c4.25,-1.09 6.49,-0.81 11.02,-0.87c10.78,0.17 21.62,1.39 32.37,-0.02c2.14,-0.28 4.28,-0.63 6.36,-1.22c1.79,-0.51 3.46,-1.38 5.19,-2.07c1.44,-1.04 3,-1.94 4.32,-3.12c4.11,-3.68 6.7,-8.53 8.21,-13.78c1.21,-4.18 1.17,-5.94 1.54,-10.17c-0.5,-4.43 -0.25,-5.05 -1.96,-9.18c-1.24,-2.98 -2.88,-5.33 -4.69,-7.98c-3.39,-4.8 -1.73,-2.41 -4.97,-7.16c-2.13,-3.12 -4.14,-6.31 -5.98,-9.6c0,0 -3.42,-1.53 -3.42,-1.53l0,0c1.94,3.34 4.03,6.58 6.24,9.75c0.8,1.18 1.6,2.37 2.42,3.54c3.47,4.97 7.41,9.83 8.79,15.89c0.35,1.55 0.39,3.15 0.58,4.72c-0.31,4.21 -0.23,5.97 -1.42,10.13c-1.48,5.18 -4.09,9.97 -8.14,13.59c-1.31,1.16 -2.83,2.05 -4.25,3.07c-1.69,0.69 -3.32,1.56 -5.07,2.08c-4.13,1.23 -9.49,1.75 -13.71,1.92c-8.33,0.34 -16.66,-0.47 -24.98,-0.73c-4.69,0.01 -6.93,-0.33 -11.31,0.81c-2.75,0.73 -5.81,2.39 -8.35,3.58c-5.96,2.8 -4.23,1.99 -10.68,4.59c-2.04,0.67 -4.05,1.41 -6.11,2c-3.81,1.11 -7.14,1.79 -11.04,2.37c-2.49,0.37 -4.68,0.59 -7.16,0.58c-0.46,0 -0.91,-0.08 -1.36,-0.11l3.17,2.37z" fill="#40916c" id="path10" stroke-width="0.5" transform="matrix(1 0 0 1 0 0)"/>
   <path d="m190.66,223.33c-5.67,5.12 -12.08,9.34 -18.37,13.65c-1.55,1.28 -3.2,2.44 -4.65,3.84c-4.85,4.69 -8.33,10.43 -11.75,16.18c-7.14,12.01 0.54,-0.6 -6.21,10.41c-1.06,1.42 -2.02,2.93 -3.2,4.26c-7.43,8.34 -17.96,12.16 -28.11,16.01c-9.81,3.78 -19.97,6.58 -29.85,10.18c-5.07,1.84 -5.9,2.3 -10.61,4.41c-1.44,0.94 -2.95,1.8 -4.34,2.83c-3.93,2.93 -7.22,6.6 -10.44,10.26c-1.76,2 -3.48,4.01 -5.23,6.01c-2.31,2.76 -5.34,4.57 -8.37,6.4c0,0 2.99,1.93 2.99,1.93l0,0c3.04,-1.87 6.09,-3.71 8.39,-6.51c6.04,-7.07 11.52,-14.41 19.78,-19.09c4.64,-2.17 5.37,-2.61 10.39,-4.51c9.83,-3.72 19.96,-6.57 29.82,-10.21c10.15,-3.83 21.02,-7.64 28.44,-16.02c1.18,-1.34 2.11,-2.87 3.17,-4.31c4,-6.76 1.96,-3.27 6.09,-10.47c2.39,-4.05 4.48,-7.63 7.44,-11.3c3.72,-4.61 4.52,-4.9 8.98,-8.56c6.39,-4.35 12.89,-8.55 18.98,-13.31l-3.34,-2.08z" fill="#40916c" id="path11" stroke-width="0.5"/>
   <path d="m166.16,289.89c0.97,-0.69 0.77,-0.59 2.16,-1.31c4.15,-2.14 1.75,-0.73 6.33,-3.19c3.19,-1.72 3.67,-2.07 6.72,-3.93c3.86,-2.53 7.38,-5.51 10.41,-9c0.86,-0.99 1.65,-2.04 2.49,-3.06c0.91,-1.1 1.83,-2.19 2.74,-3.29c6.16,-7.43 14.76,-11.9 23.28,-16.04c6.14,-2.88 12.55,-5.09 18.93,-7.37c1.7,-0.6 3.43,-1.16 5.1,-1.85c1.57,-0.65 3.08,-1.45 4.63,-2.17c4.58,-2.54 9.11,-5.38 12.85,-9.09c1.64,-1.63 2.15,-2.42 3.51,-4.21c1.34,-1.88 2.51,-3.88 3.63,-5.9c0,0 -3.33,-1.91 -3.33,-1.91l0,0c-1.06,2.04 -2.15,4.06 -3.46,5.94c-1.35,1.83 -1.76,2.51 -3.4,4.19c-3.65,3.72 -8.08,6.6 -12.6,9.13c-1.52,0.73 -3.01,1.52 -4.57,2.17c-1.66,0.7 -3.38,1.26 -5.07,1.87c-6.42,2.28 -12.91,4.37 -19.06,7.33c-7.23,3.53 -14.57,7.32 -20.44,12.93c-1.05,1.01 -1.97,2.14 -2.95,3.21c-0.93,1.09 -1.86,2.17 -2.79,3.27c-0.84,1 -1.65,2.03 -2.52,3.01c-3.04,3.41 -6.52,6.41 -10.33,8.93c-2.8,1.73 -3.74,2.38 -6.69,3.91c-3.81,1.99 -2.95,1.4 -6.57,3.05c-1.46,0.67 -1.29,0.6 -2.33,1.26l3.33,2.12z" fill="#40916c" id="path12" stroke-width="0.5"/>
   <path d="m199.69,287.33c-0.39,0.35 -0.73,0.76 -1.16,1.05c-2.13,1.43 -5.48,3.04 -7.66,4.11c-6.41,3.13 -12.91,6.03 -19.43,8.9c-6.7,2.72 -13.1,6.09 -19.01,10.25c-4.59,3.22 -8.76,6.93 -12.9,10.68c-3.76,3.58 -7.31,7.38 -11.62,10.32c-3.22,2.21 -4.22,2.58 -7.77,4.42c-1.6,0.64 -3.18,1.36 -4.81,1.93c-3.63,1.26 -6.73,1.97 -10.48,2.8c-4.97,1.1 -9.97,1.96 -15,2.75c-1.21,0.17 -2.42,0.33 -3.62,0.5c0,0 2.89,2.04 2.89,2.04l0,0c1.18,-0.19 2.36,-0.38 3.53,-0.57c4.99,-0.87 9.98,-1.75 14.92,-2.84c3.72,-0.82 6.92,-1.58 10.52,-2.83c1.66,-0.57 3.26,-1.28 4.88,-1.92c3.54,-1.79 4.7,-2.23 7.9,-4.4c4.32,-2.94 7.88,-6.74 11.53,-10.42c4.05,-3.8 8.13,-7.54 12.66,-10.77c5.86,-4.19 12.23,-7.55 18.89,-10.27c6.59,-2.87 13.18,-5.74 19.72,-8.73c1.49,-0.68 6.37,-2.93 8.07,-3.94c0.47,-0.27 0.86,-0.67 1.29,-1.01l-3.34,-2.05z" fill="#40916c" id="path13" stroke-width="0.5"/>
   <path d="m120.19,151.22c-1.64,-1.7 -3.66,-2.98 -5.57,-4.37c-2.56,-1.86 -2.26,-1.67 -4.75,-3.65c-2.3,-2.15 -5.31,-4.47 -5.64,-7.88c-0.2,-2.03 0.37,-4.09 0.75,-6.04c1.22,-4.98 1.72,-10.13 2.99,-15.1c0.69,-2.71 1.02,-3.38 1.99,-5.92c0,0 -3.16,-1.76 -3.16,-1.76l0,0c-0.94,2.56 -1.29,3.3 -1.95,6c-1.23,4.99 -1.66,10.14 -3.01,15.1c-0.41,1.85 -1.09,4.15 -0.96,6.12c0.22,3.51 3.29,5.92 5.64,8.13c2.41,1.95 2.23,1.84 4.7,3.66c1.06,0.78 2.77,1.96 3.84,2.81c0.12,0.1 1.21,1.09 1.49,1.35l3.64,1.55z" fill="#40916c" id="path14" stroke-width="0.5" transform="matrix(1 0 0 1 0 0)"/>
  </g>
 </g>
</svg>